PathFileType	4	(X/Y/Z)	T1_P1_Vision_Movement_1_0-686.trc
DataRate	CameraRate	NumFrames	NumMarkers	Units	OrigDataRate	OrigDataStartFrame	OrigNumFrames
60	60	7	27	m	60	257	686
Frame#	Time	RHip			RKnee			RAnkle			RBigToe			RSmallToe			RHeel			LHip			LKnee			LAnkle			LBigToe			LSmallToe			LHeel			Neck			Head			Nose			RShoulder			RElbow			RWrist			RThumb			RIndex			RPinky			LShoulder			LElbow			LWrist			LThumb			LIndex			LPinky		
		X1	Y1	Z1	X2	Y2	Z2	X3	Y3	Z3	X4	Y4	Z4	X5	Y5	Z5	X6	Y6	Z6	X7	Y7	Z7	X8	Y8	Z8	X9	Y9	Z9	X10	Y10	Z10	X11	Y11	Z11	X12	Y12	Z12	X13	Y13	Z13	X14	Y14	Z14	X15	Y15	Z15	X16	Y16	Z16	X17	Y17	Z17	X18	Y18	Z18	X19	Y19	Z19	X20	Y20	Z20	X21	Y21	Z21	X22	Y22	Z22	X23	Y23	Z23	X24	Y24	Z24	X25	Y25	Z25	X26	Y26	Z26	X27	Y27	Z27
258	4.3	-82.882901463097	3900.8024626655374	-718.0388943370037	264.88341242031015	3987.6713141490022	-678.661078833385	629.5919441836569	4230.8821585244505	-695.458017982456	687.5552448224282	4074.476554376214	-623.5506563366885	704.5497358242991	4156.177089002284	-735.416187056383	661.5074757693928	4288.015571122344	-697.3837068134463	-112.6500860137008	3985.329134907242	-513.7764717444815	219.95162001667137	4065.7508262869696	-502.1087449584745	572.9037117255359	4291.436873382021	-534.0479108820714	655.0173955878279	4179.469511211635	-490.8191295995188	636.1811489890326	4256.4914826835475	-436.1991479777389	627.881300445343	4373.832774842821	-568.6844910097932	-695.752110604545	3775.5289178225503	-614.583282338884	-932.8464924632233	3641.4808084229044	-568.6869189576651	-794.7222862954278	3655.325282243488	-534.0911486648371	-582.0907177154844	3720.9137831943003	-725.3206913644186	-311.1236496071101	3604.7897711624646	-721.1240594781135	-441.1837016964913	3554.0552122933786	-534.9552436529377	-542.2982739933009	3497.38714269693	-422.070860688884	-531.896434367049	3488.716935738458	-404.48428796924867	-487.31477942401574	3479.3419529507764	-412.9390799540131	-642.0148076859612	3917.167222934958	-521.2758347879379	-393.7883030145411	4042.289930384744	-472.7176642306105	-132.92106817579185	3978.007540992725	-369.2532941250557	-7.361610689275695	3947.235388624842	-348.69579868960386	19.28886431343974	3986.9595014629776	-349.6345317109265	7.966026532991351	4133.85233000327	-378.153141800238
259	4.316666666666666	-82.9010544807994	3900.531470541873	-717.9122687612266	261.98245674759494	3967.366556743449	-662.9426700237706	623.449748429753	4227.645645564917	-695.9359101682522	692.1771705187813	4095.291447624889	-638.9759124249418	697.4085586742644	4124.139930983403	-729.5687240378123	666.5483489495389	4311.619528731026	-713.5088865970772	-112.6528650215107	3985.4838817473797	-513.9574917077379	219.89058676001565	4066.138694880674	-502.30032313259056	576.7337908131726	4322.785672265584	-540.8146850479973	649.5113901149786	4156.0399321651785	-475.05459606440115	635.7813440821166	4256.295383363512	-436.13685728984376	633.5083562902263	4377.680371683182	-570.7798807796663	-695.6968861840271	3775.549932459406	-614.5932992718797	-932.8812581730214	3641.4072618248833	-568.5482564220276	-794.8292734937697	3654.8245254239805	-528.0620072068201	-582.0659701809054	3720.8276453468807	-725.2781958231982	-311.17437701247735	3604.514314532122	-720.8216314743867	-441.2559041081716	3553.9739660724044	-534.8553278370397	-546.8654548739077	3494.8364863414436	-421.3121149021643	-536.3217789698081	3485.790647335967	-403.6226928784693	-488.81102300693215	3494.167563393865	-425.13445297964137	-637.4018571497602	3920.4706031052	-522.5281062276284	-396.4520213397988	4071.7445925560314	-478.9220224218381	-132.8077467392088	3978.0590518491704	-369.25749804506984	-5.882228282392146	3966.148751873738	-361.3155301287661	19.437448508578978	3987.267319945931	-349.743110933957	8.091703035685859	4133.838456200439	-377.96841130050296
260	4.333333333333333	-82.9096493956154	3900.587246615941	-717.8925314821698	261.981213000139	3967.297446241556	-662.9544384867044	623.5523505497212	4228.462933266708	-696.1777575054299	687.3597459622735	4074.2356988667343	-623.5391706027282	702.7233361195739	4156.410219515817	-738.420684449032	666.6868009790903	4312.368537620635	-713.8780473479364	-112.63480868407748	3985.2743537543006	-513.7847469824419	220.0346737903542	4066.40594845886	-502.2306895972526	577.1508211360903	4323.655655004123	-540.9828790547166	654.8859730366017	4156.051485636527	-474.58872154856573	636.1459095515605	4256.645325246945	-436.1137302708629	633.9979869416767	4378.630853014358	-570.9269992408358	-695.708180356401	3775.3962556455576	-614.5093297795614	-932.7008202952978	3641.166500157234	-568.4946274044626	-797.9430720584951	3672.249653769872	-542.1136004063754	-582.0878516418255	3720.8814070739822	-725.2837385396034	-311.1674613214944	3604.6107687411286	-720.9542010125073	-441.14196845961015	3553.9047837749104	-534.9287611096902	-546.7793577762781	3494.3067163470205	-421.18868497569076	-536.1081912569231	3485.402796334728	-403.5736621743629	-486.8863745234784	3479.2703916056	-412.8773557544622	-637.397389692695	3920.2699469224244	-522.3992303638503	-396.55658965363534	4071.815434134333	-478.93662984586445	-132.91773131962833	3977.78504548359	-369.1302522746507	-7.168663718252582	3947.561682077572	-348.76087234552165	19.39231592691938	3987.2032502324605	-349.7125907201965	8.100242642887892	4134.74733440509	-378.20948581740237
261	4.35	-82.84334833401977	3900.6260133877227	-717.9414212337267	262.0295135330376	3967.278726908162	-662.7914154207126	616.7596150963321	4223.705002276487	-693.7600558601277	681.1361496574413	4070.7507855691492	-623.8381454410555	691.3116848741862	4131.241038436843	-719.4990285080322	660.0306137240914	4309.269605176435	-714.581852802943	-112.65458955081067	3985.436213572543	-513.7776509115779	219.9816905089421	4066.3956570235437	-502.4001201400558	577.0841307986949	4323.821715722943	-541.0764725994428	654.8779577495708	4156.416634552788	-474.70146955801096	642.3027181906905	4261.852306721129	-438.7630334503417	634.415399367839	4379.436598517716	-571.4354000939727	-695.7012710715604	3775.505506408955	-614.6097343530562	-936.5376720906569	3658.2709118458297	-582.039257644701	-794.8471304257823	3655.1746085229206	-528.2394716430147	-582.0624216159626	3720.985971430291	-725.3821069793885	-311.16766150629803	3604.237706078261	-720.8990917935702	-440.55415190850886	3552.2205189928272	-539.7992219052065	-541.8324323053968	3496.620988992156	-427.0425037149734	-527.4804582888519	3489.7029717216856	-404.35853661679334	-486.8110765740441	3479.0559283605576	-412.9180663363613	-637.43129634018	3920.3260000470077	-522.4726001243447	-396.6574105634464	4071.98042258285	-479.0329729577959	-143.74730255759118	3974.994902391881	-369.9267788976475	-7.863337027475777	3947.2009917627524	-348.67417288533176	19.222939024880798	3987.3478542738753	-349.8243312871592	2.9478554724368853	4131.408221079318	-378.34036066831425
262	4.366666666666666	-82.82874099115814	3900.7928961306707	-717.9489782487492	262.00545719045584	3967.0226546007307	-662.7892920063742	629.6176690074848	4231.265464770954	-695.5747647670588	687.3891464602709	4074.1978594192856	-623.4900733560038	705.1816366586081	4127.660091608927	-728.9042097584123	666.6398291387213	4312.555881690982	-713.953258350122	-112.61259267480479	3985.2412662375	-513.6471166952058	219.93874816640246	4066.0812628184326	-502.3133323414174	576.9678133905182	4323.216506129403	-540.9030459264088	654.8290775792765	4155.7782702580635	-474.4579825767303	636.151900830738	4256.705911743293	-436.35752942769767	627.6600809515468	4373.64672883086	-568.6372462715449	-695.7320816864448	3775.3118225183225	-614.5031950272007	-936.5170976006075	3658.2388379504673	-582.0544449222939	-797.9277953164858	3672.1575576939113	-542.0287431368221	-582.0613674827626	3720.9397069598117	-725.314637158105	-311.14942270013177	3603.90631209062	-720.6559698702863	-440.62862181654407	3552.134138372425	-539.7676391788508	-541.6988912025024	3496.6494937728958	-427.05879613988134	-527.059964582301	3490.0105688412236	-404.6516539604381	-481.94913650772605	3480.4310227359147	-412.46352216244094	-637.393734092338	3920.2234456638025	-522.3898892320311	-396.6717149963819	4072.073996268879	-479.0074211603641	-132.8675954516717	3977.821752926355	-369.08772636754395	-6.197572705691132	3965.789802773492	-361.1835799519716	19.269027892827857	3986.9053945101955	-349.6203468740036	7.9956750500230225	4134.46028924357	-377.87465592474894
263	4.383333333333334	-82.82766623159289	3900.5012759003635	-717.8885048351752	256.8276736992769	3967.563531107598	-663.5384824512313	623.2732361779032	4228.05931131347	-696.1774834454143	681.5832793746343	4071.107794326072	-624.0365796018756	696.9489413406117	4152.693855262195	-736.2841326616848	666.5155007877613	4312.578492488448	-714.2353797321259	-112.61384977005483	3985.130371083145	-513.8017944506886	219.9860540962302	4066.2104930780934	-502.32765383390824	583.0826723043481	4322.724223145249	-540.3186562857767	660.0591175695195	4179.11714229847	-490.3323699253221	636.2935484546854	4257.341509106493	-436.81926275387843	633.8462937399006	4378.071944845986	-571.0150636714972	-695.7442017372648	3775.212705391852	-614.4318601494316	-936.5837504057023	3658.3555380879916	-582.0710565546348	-797.8566486140371	3672.2324953310213	-542.0718324243616	-582.0460900479213	3720.7665007187843	-725.2471264660985	-311.18461579364094	3603.6934575778655	-720.6965489977943	-440.5865140825118	3552.008128429905	-539.8022364015869	-546.3974234554316	3494.119024432076	-426.16624308319405	-531.8941864228501	3486.901378945274	-403.54901501799657	-483.21989254281095	3494.586508892808	-429.3601852550588	-634.7834074900726	3899.9819568192506	-507.6849044098611	-393.8719351492205	4042.3133612634856	-472.739954019888	-132.94087901869463	3977.822659754341	-369.18122959919316	-7.480832955248577	3947.139346642403	-348.6110229721131	19.362825896102194	3987.0820713493194	-349.61367293537495	3.038751455068368	4130.8233692836575	-378.11660934482916
264	4.4	-82.81213131337584	3900.540244587715	-717.8976777964008	256.70370162972256	3967.245985120994	-663.2515708592308	616.9569424403613	4223.131124755577	-693.6087361107844	687.1328084007208	4074.0545765231877	-623.3640783434876	691.2834864749904	4119.758337874452	-726.8538350166577	666.475860947063	4312.611645316394	-714.1935273886718	-112.53736017661262	3985.30688854599	-513.7589939635757	219.9330229290606	4066.603530764999	-502.4950392816852	583.3182002526214	4322.859707810746	-540.4415437584681	655.0555105659835	4156.243192305897	-474.6251036437486	642.5434334157435	4261.646486395752	-438.7995903123189	629.4425677855463	4344.678880356694	-563.4750646460059	-695.7087083857823	3775.225883521655	-614.4489637050165	-932.8293440305508	3641.5516299526194	-568.7681929454595	-797.9415534551846	3672.225748017898	-542.1150071821695	-582.076130723397	3720.5620226772376	-725.0761780399565	-311.169802036341	3603.563116974171	-720.5137410989026	-437.91426147753873	3528.437056014351	-533.8274049823491	-546.3784789606464	3493.72016866621	-426.17236185479044	-528.3874153285342	3464.719864576928	-404.08021361205084	-481.5896256302337	3479.466716779055	-416.9239991098064	-632.4249745372553	3921.5920572880023	-521.9385622502505	-396.5516365082444	4071.9608478317823	-478.9770980352687	-132.9931606748185	3977.9656118640137	-369.2530245179912	-7.248546919675543	3947.537854908892	-348.81682347589737	19.440638659083863	3987.2747959484077	-349.7441074968915	8.053882644934736	4133.856828795462	-377.69130276659024
